<mxfile host="app.diagrams.net" modified="2021-02-14T14:12:23.407Z" agent="5.0 (Windows NT 10.0; Win64; x64) AppleWebKit/537.36 (KHTML, like Gecko) Chrome/88.0.4324.150 Safari/537.36" etag="ekbuVg0dHqdGXjW_8k4s" version="14.3.1" type="github">
  <diagram id="C5RBs43oDa-KdzZeNtuy" name="Page-1">
    <mxGraphModel dx="845" dy="784" grid="1" gridSize="10" guides="1" tooltips="1" connect="1" arrows="1" fold="1" page="1" pageScale="1" pageWidth="827" pageHeight="1169" math="0" shadow="0">
      <root>
        <mxCell id="WIyWlLk6GJQsqaUBKTNV-0" />
        <mxCell id="WIyWlLk6GJQsqaUBKTNV-1" parent="WIyWlLk6GJQsqaUBKTNV-0" />
        <mxCell id="3pb1M2cHHXeCoLF480UQ-0" value="&lt;p style=&quot;margin: 0px ; margin-top: 4px ; text-align: center&quot;&gt;&lt;b&gt;King&lt;/b&gt;&lt;/p&gt;&lt;hr size=&quot;1&quot;&gt;&lt;div style=&quot;height: 2px&quot;&gt;&amp;nbsp; &amp;nbsp;+fight()&lt;/div&gt;" style="verticalAlign=top;align=left;overflow=fill;fontSize=12;fontFamily=Helvetica;html=1;" vertex="1" parent="WIyWlLk6GJQsqaUBKTNV-1">
          <mxGeometry x="40" y="330" width="140" height="60" as="geometry" />
        </mxCell>
        <mxCell id="3pb1M2cHHXeCoLF480UQ-1" value="&lt;p style=&quot;margin: 0px ; margin-top: 4px ; text-align: center&quot;&gt;&lt;br&gt;&lt;b&gt;WeaponBehaviour&lt;/b&gt;&lt;br&gt;&lt;/p&gt;&lt;hr size=&quot;1&quot;&gt;&lt;div style=&quot;height: 2px&quot;&gt;&amp;nbsp; +useWeapon()&lt;/div&gt;" style="verticalAlign=top;align=left;overflow=fill;fontSize=12;fontFamily=Helvetica;html=1;" vertex="1" parent="WIyWlLk6GJQsqaUBKTNV-1">
          <mxGeometry x="290" y="270" width="140" height="70" as="geometry" />
        </mxCell>
        <mxCell id="3pb1M2cHHXeCoLF480UQ-10" value="Character" style="swimlane;fontStyle=1;align=center;verticalAlign=top;childLayout=stackLayout;horizontal=1;startSize=26;horizontalStack=0;resizeParent=1;resizeParentMax=0;resizeLast=0;collapsible=1;marginBottom=0;" vertex="1" parent="WIyWlLk6GJQsqaUBKTNV-1">
          <mxGeometry x="260" y="110" width="170" height="86" as="geometry" />
        </mxCell>
        <mxCell id="3pb1M2cHHXeCoLF480UQ-11" value="+weapon WeaponBehaviour" style="text;strokeColor=none;fillColor=none;align=left;verticalAlign=top;spacingLeft=4;spacingRight=4;overflow=hidden;rotatable=0;points=[[0,0.5],[1,0.5]];portConstraint=eastwest;" vertex="1" parent="3pb1M2cHHXeCoLF480UQ-10">
          <mxGeometry y="26" width="170" height="26" as="geometry" />
        </mxCell>
        <mxCell id="3pb1M2cHHXeCoLF480UQ-12" value="" style="line;strokeWidth=1;fillColor=none;align=left;verticalAlign=middle;spacingTop=-1;spacingLeft=3;spacingRight=3;rotatable=0;labelPosition=right;points=[];portConstraint=eastwest;" vertex="1" parent="3pb1M2cHHXeCoLF480UQ-10">
          <mxGeometry y="52" width="170" height="8" as="geometry" />
        </mxCell>
        <mxCell id="3pb1M2cHHXeCoLF480UQ-13" value="+fight()" style="text;strokeColor=none;fillColor=none;align=left;verticalAlign=top;spacingLeft=4;spacingRight=4;overflow=hidden;rotatable=0;points=[[0,0.5],[1,0.5]];portConstraint=eastwest;" vertex="1" parent="3pb1M2cHHXeCoLF480UQ-10">
          <mxGeometry y="60" width="170" height="26" as="geometry" />
        </mxCell>
        <mxCell id="3pb1M2cHHXeCoLF480UQ-15" value="&lt;p style=&quot;margin: 0px ; margin-top: 4px ; text-align: center&quot;&gt;&lt;br&gt;&lt;b&gt;ClubBehaviour&lt;/b&gt;&lt;br&gt;&lt;/p&gt;&lt;hr size=&quot;1&quot;&gt;&lt;div style=&quot;height: 2px&quot;&gt;&amp;nbsp; +useWeapon()&lt;/div&gt;" style="verticalAlign=top;align=left;overflow=fill;fontSize=12;fontFamily=Helvetica;html=1;" vertex="1" parent="WIyWlLk6GJQsqaUBKTNV-1">
          <mxGeometry x="410" y="410" width="140" height="70" as="geometry" />
        </mxCell>
        <mxCell id="3pb1M2cHHXeCoLF480UQ-16" value="&lt;p style=&quot;margin: 0px ; margin-top: 4px ; text-align: center&quot;&gt;&lt;br&gt;&lt;b&gt;SwordBehaviour&lt;/b&gt;&lt;br&gt;&lt;/p&gt;&lt;hr size=&quot;1&quot;&gt;&lt;div style=&quot;height: 2px&quot;&gt;&amp;nbsp; +useWeapon()&lt;/div&gt;" style="verticalAlign=top;align=left;overflow=fill;fontSize=12;fontFamily=Helvetica;html=1;" vertex="1" parent="WIyWlLk6GJQsqaUBKTNV-1">
          <mxGeometry x="510" y="320" width="140" height="70" as="geometry" />
        </mxCell>
        <mxCell id="3pb1M2cHHXeCoLF480UQ-17" value="&lt;p style=&quot;margin: 0px ; margin-top: 4px ; text-align: center&quot;&gt;&lt;br&gt;&lt;b&gt;AxeBehaviour&lt;/b&gt;&lt;br&gt;&lt;/p&gt;&lt;hr size=&quot;1&quot;&gt;&lt;div style=&quot;height: 2px&quot;&gt;&amp;nbsp; +useWeapon()&lt;/div&gt;" style="verticalAlign=top;align=left;overflow=fill;fontSize=12;fontFamily=Helvetica;html=1;" vertex="1" parent="WIyWlLk6GJQsqaUBKTNV-1">
          <mxGeometry x="510" y="220" width="140" height="70" as="geometry" />
        </mxCell>
        <mxCell id="3pb1M2cHHXeCoLF480UQ-18" value="&lt;p style=&quot;margin: 0px ; margin-top: 4px ; text-align: center&quot;&gt;&lt;br&gt;&lt;b&gt;KnifeBehaviour&lt;/b&gt;&lt;br&gt;&lt;/p&gt;&lt;hr size=&quot;1&quot;&gt;&lt;div style=&quot;height: 2px&quot;&gt;&amp;nbsp; +useWeapon()&lt;/div&gt;" style="verticalAlign=top;align=left;overflow=fill;fontSize=12;fontFamily=Helvetica;html=1;" vertex="1" parent="WIyWlLk6GJQsqaUBKTNV-1">
          <mxGeometry x="240" y="410" width="140" height="70" as="geometry" />
        </mxCell>
        <mxCell id="3pb1M2cHHXeCoLF480UQ-19" value="&lt;p style=&quot;margin: 0px ; margin-top: 4px ; text-align: center&quot;&gt;&lt;b&gt;Queen&lt;/b&gt;&lt;/p&gt;&lt;hr size=&quot;1&quot;&gt;&lt;div style=&quot;height: 2px&quot;&gt;&amp;nbsp; &amp;nbsp;+fight()&lt;/div&gt;" style="verticalAlign=top;align=left;overflow=fill;fontSize=12;fontFamily=Helvetica;html=1;" vertex="1" parent="WIyWlLk6GJQsqaUBKTNV-1">
          <mxGeometry x="40" y="90" width="140" height="60" as="geometry" />
        </mxCell>
        <mxCell id="3pb1M2cHHXeCoLF480UQ-20" value="&lt;p style=&quot;margin: 0px ; margin-top: 4px ; text-align: center&quot;&gt;&lt;b&gt;Troll&lt;/b&gt;&lt;/p&gt;&lt;hr size=&quot;1&quot;&gt;&lt;div style=&quot;height: 2px&quot;&gt;&amp;nbsp; &amp;nbsp;+fight()&lt;/div&gt;" style="verticalAlign=top;align=left;overflow=fill;fontSize=12;fontFamily=Helvetica;html=1;" vertex="1" parent="WIyWlLk6GJQsqaUBKTNV-1">
          <mxGeometry x="40" y="170" width="140" height="60" as="geometry" />
        </mxCell>
        <mxCell id="3pb1M2cHHXeCoLF480UQ-21" value="&lt;p style=&quot;margin: 0px ; margin-top: 4px ; text-align: center&quot;&gt;&lt;b&gt;Knight&lt;/b&gt;&lt;/p&gt;&lt;hr size=&quot;1&quot;&gt;&lt;div style=&quot;height: 2px&quot;&gt;&amp;nbsp; &amp;nbsp;+fight()&lt;/div&gt;" style="verticalAlign=top;align=left;overflow=fill;fontSize=12;fontFamily=Helvetica;html=1;" vertex="1" parent="WIyWlLk6GJQsqaUBKTNV-1">
          <mxGeometry x="40" y="250" width="140" height="60" as="geometry" />
        </mxCell>
        <mxCell id="3pb1M2cHHXeCoLF480UQ-22" value="" style="endArrow=diamondThin;endFill=0;endSize=24;html=1;exitX=0.5;exitY=0;exitDx=0;exitDy=0;" edge="1" parent="WIyWlLk6GJQsqaUBKTNV-1" source="3pb1M2cHHXeCoLF480UQ-1">
          <mxGeometry width="160" relative="1" as="geometry">
            <mxPoint x="330" y="400" as="sourcePoint" />
            <mxPoint x="345" y="190" as="targetPoint" />
          </mxGeometry>
        </mxCell>
        <mxCell id="3pb1M2cHHXeCoLF480UQ-23" value="" style="endArrow=open;endFill=1;endSize=12;html=1;entryX=0.75;entryY=1;entryDx=0;entryDy=0;exitX=0.5;exitY=0;exitDx=0;exitDy=0;" edge="1" parent="WIyWlLk6GJQsqaUBKTNV-1" source="3pb1M2cHHXeCoLF480UQ-15" target="3pb1M2cHHXeCoLF480UQ-1">
          <mxGeometry width="160" relative="1" as="geometry">
            <mxPoint x="330" y="400" as="sourcePoint" />
            <mxPoint x="490" y="400" as="targetPoint" />
          </mxGeometry>
        </mxCell>
        <mxCell id="3pb1M2cHHXeCoLF480UQ-25" value="" style="endArrow=open;endFill=1;endSize=12;html=1;entryX=1;entryY=0.5;entryDx=0;entryDy=0;exitX=0;exitY=0.5;exitDx=0;exitDy=0;" edge="1" parent="WIyWlLk6GJQsqaUBKTNV-1" source="3pb1M2cHHXeCoLF480UQ-17" target="3pb1M2cHHXeCoLF480UQ-1">
          <mxGeometry width="160" relative="1" as="geometry">
            <mxPoint x="330" y="400" as="sourcePoint" />
            <mxPoint x="490" y="400" as="targetPoint" />
          </mxGeometry>
        </mxCell>
        <mxCell id="3pb1M2cHHXeCoLF480UQ-26" value="" style="endArrow=open;endFill=1;endSize=12;html=1;entryX=0.5;entryY=1;entryDx=0;entryDy=0;exitX=0.5;exitY=0;exitDx=0;exitDy=0;" edge="1" parent="WIyWlLk6GJQsqaUBKTNV-1" source="3pb1M2cHHXeCoLF480UQ-18" target="3pb1M2cHHXeCoLF480UQ-1">
          <mxGeometry width="160" relative="1" as="geometry">
            <mxPoint x="330" y="400" as="sourcePoint" />
            <mxPoint x="490" y="400" as="targetPoint" />
          </mxGeometry>
        </mxCell>
        <mxCell id="3pb1M2cHHXeCoLF480UQ-28" value="" style="endArrow=open;endFill=1;endSize=12;html=1;entryX=1;entryY=0.75;entryDx=0;entryDy=0;exitX=0;exitY=0.5;exitDx=0;exitDy=0;" edge="1" parent="WIyWlLk6GJQsqaUBKTNV-1" source="3pb1M2cHHXeCoLF480UQ-16" target="3pb1M2cHHXeCoLF480UQ-1">
          <mxGeometry width="160" relative="1" as="geometry">
            <mxPoint x="330" y="400" as="sourcePoint" />
            <mxPoint x="490" y="400" as="targetPoint" />
          </mxGeometry>
        </mxCell>
        <mxCell id="3pb1M2cHHXeCoLF480UQ-29" value="" style="endArrow=open;endFill=1;endSize=12;html=1;entryX=-0.006;entryY=0.885;entryDx=0;entryDy=0;entryPerimeter=0;exitX=1;exitY=0.5;exitDx=0;exitDy=0;" edge="1" parent="WIyWlLk6GJQsqaUBKTNV-1" source="3pb1M2cHHXeCoLF480UQ-0" target="3pb1M2cHHXeCoLF480UQ-13">
          <mxGeometry width="160" relative="1" as="geometry">
            <mxPoint x="330" y="400" as="sourcePoint" />
            <mxPoint x="490" y="400" as="targetPoint" />
          </mxGeometry>
        </mxCell>
        <mxCell id="3pb1M2cHHXeCoLF480UQ-30" value="" style="endArrow=open;endFill=1;endSize=12;html=1;entryX=-0.012;entryY=0.231;entryDx=0;entryDy=0;entryPerimeter=0;exitX=1;exitY=0.5;exitDx=0;exitDy=0;" edge="1" parent="WIyWlLk6GJQsqaUBKTNV-1" source="3pb1M2cHHXeCoLF480UQ-21" target="3pb1M2cHHXeCoLF480UQ-13">
          <mxGeometry width="160" relative="1" as="geometry">
            <mxPoint x="330" y="400" as="sourcePoint" />
            <mxPoint x="490" y="400" as="targetPoint" />
          </mxGeometry>
        </mxCell>
        <mxCell id="3pb1M2cHHXeCoLF480UQ-31" value="" style="endArrow=open;endFill=1;endSize=12;html=1;entryX=0.012;entryY=0.808;entryDx=0;entryDy=0;entryPerimeter=0;exitX=1;exitY=0.5;exitDx=0;exitDy=0;" edge="1" parent="WIyWlLk6GJQsqaUBKTNV-1" source="3pb1M2cHHXeCoLF480UQ-20" target="3pb1M2cHHXeCoLF480UQ-11">
          <mxGeometry width="160" relative="1" as="geometry">
            <mxPoint x="330" y="400" as="sourcePoint" />
            <mxPoint x="490" y="400" as="targetPoint" />
          </mxGeometry>
        </mxCell>
        <mxCell id="3pb1M2cHHXeCoLF480UQ-32" value="" style="endArrow=open;endFill=1;endSize=12;html=1;entryX=0;entryY=0.5;entryDx=0;entryDy=0;exitX=1;exitY=0.5;exitDx=0;exitDy=0;" edge="1" parent="WIyWlLk6GJQsqaUBKTNV-1" source="3pb1M2cHHXeCoLF480UQ-19" target="3pb1M2cHHXeCoLF480UQ-11">
          <mxGeometry width="160" relative="1" as="geometry">
            <mxPoint x="330" y="400" as="sourcePoint" />
            <mxPoint x="490" y="400" as="targetPoint" />
          </mxGeometry>
        </mxCell>
      </root>
    </mxGraphModel>
  </diagram>
</mxfile>
